<svg width="475" height="85" viewBox="0 0 475 85" fill="none" xmlns="http://www.w3.org/2000/svg">
<g clip-path="url(#clip0_1459_409)">
<path d="M462.389 67.3619C461.193 69.0458 454.686 72.4284 438.601 73.167C437.02 73.2408 435.403 73.2777 433.785 73.2777C426.407 73.2777 419.768 72.517 413.342 71.7859C407.16 71.0769 401.318 70.4122 395.063 70.4122C393.896 70.4122 392.737 70.4343 391.614 70.486C375.491 71.1581 367.692 76.6455 367.611 76.7046L367.803 77.0001C367.877 76.9557 375.646 72.4284 391.673 71.7563C392.796 71.712 393.948 71.6825 395.107 71.6825C401.341 71.6825 407.175 72.3472 413.35 73.0488C419.782 73.78 426.429 74.5407 433.83 74.5407C435.447 74.5407 437.072 74.5037 438.66 74.4299C459.014 73.4919 462.537 67.7903 462.677 67.5466L462.389 67.3619Z" fill="#F3A100"/>
<path d="M317.855 20.0502H319.893L331.045 36.2319H331.097V20.0502H332.921V39.1861H330.883L319.731 22.997H319.679V39.1861H317.855V20.0502Z" fill="#5B5B5F"/>
<path d="M348.807 32.2658C348.807 36.2319 346.503 39.5849 342.271 39.5849C338.039 39.5849 335.735 36.2319 335.735 32.2658C335.735 28.2998 338.039 24.9468 342.271 24.9468C346.503 24.9468 348.807 28.2998 348.807 32.2658ZM337.419 32.2658C337.419 35.2127 339.029 38.1595 342.271 38.1595C345.514 38.1595 347.124 35.2127 347.124 32.2658C347.124 29.319 345.514 26.3722 342.271 26.3722C339.029 26.3722 337.419 29.319 337.419 32.2658Z" fill="#5B5B5F"/>
<path d="M354.007 25.3531H356.821V26.7711H354.007V36.099C354.007 37.1994 354.169 37.842 355.373 37.9232C355.853 37.9232 356.341 37.8937 356.821 37.842V39.2895C356.311 39.2895 355.831 39.3412 355.321 39.3412C353.069 39.3412 352.293 38.5879 352.316 36.2319V26.7785H349.901V25.3604H352.316V21.2024H354.007V25.3531Z" fill="#5B5B5F"/>
<path d="M359.265 25.353H360.816V28.5952H360.868C361.725 26.3722 363.601 25.0576 366.097 25.161V26.8522C363.039 26.6898 360.949 28.9423 360.949 31.8079V39.1787H359.258V25.353H359.265Z" fill="#5B5B5F"/>
<path d="M368.209 32.7237C368.239 35.1905 369.524 38.1669 372.766 38.1669C375.233 38.1669 376.57 36.7193 377.109 34.6292H378.8C378.076 37.768 376.252 39.5849 372.766 39.5849C368.372 39.5849 366.525 36.2097 366.525 32.2658C366.525 28.6174 368.372 24.9468 372.766 24.9468C377.212 24.9468 378.985 28.8316 378.852 32.7163H368.209V32.7237ZM377.16 31.3057C377.079 28.7577 375.499 26.3722 372.766 26.3722C370.004 26.3722 368.475 28.7872 368.209 31.3057H377.16Z" fill="#5B5B5F"/>
<path d="M381.451 20.0502H388.069C393.83 20.1831 396.858 23.3441 396.858 29.6144C396.858 35.8847 393.83 39.0457 388.069 39.1787H381.451V20.0502ZM383.276 37.6277H387.16C392.655 37.6573 395.041 35.3234 395.041 29.6144C395.041 23.9054 392.655 21.5716 387.16 21.6011H383.276V37.6277Z" fill="#5B5B5F"/>
<path d="M399.324 29.5923C399.487 26.3501 401.762 24.9542 404.923 24.9542C407.36 24.9542 410.011 25.7075 410.011 29.4003V36.7415C410.011 37.3841 410.329 37.7607 411.001 37.7607C411.186 37.7607 411.4 37.709 411.533 37.6499V39.068C411.156 39.1492 410.89 39.1787 410.432 39.1787C408.719 39.1787 408.446 38.2112 408.446 36.7637H408.394C407.212 38.5584 406.008 39.5776 403.357 39.5776C400.809 39.5776 398.719 38.3146 398.719 35.5303C398.719 31.6455 402.5 31.5126 406.141 31.0842C407.537 30.9217 408.313 30.7371 408.313 29.2083C408.313 26.9335 406.68 26.3649 404.694 26.3649C402.604 26.3649 401.053 27.3324 400.994 29.5776H399.324V29.5923ZM408.327 31.6234H408.276C408.062 32.0222 407.308 32.1625 406.858 32.2437C403.992 32.7533 400.425 32.7238 400.425 35.4343C400.425 37.1256 401.924 38.1669 403.505 38.1669C406.075 38.1669 408.357 36.5347 408.327 33.8242V31.6234Z" fill="#5B5B5F"/>
<path d="M413.394 25.353H414.945V27.6869H415.026C415.912 26.0251 417.36 24.9542 419.553 24.9542C421.378 24.9542 423.01 25.8405 423.519 27.6647C424.354 25.8405 426.09 24.9542 427.914 24.9542C430.942 24.9542 432.493 26.5347 432.493 29.8065V39.1861H430.802V29.8878C430.802 27.613 429.945 26.3796 427.53 26.3796C424.605 26.3796 423.778 28.7873 423.778 31.3649V39.1935H422.087V29.8139C422.116 27.938 421.333 26.387 419.192 26.387C416.267 26.387 415.093 28.5805 415.063 31.4756V39.1935H413.379V25.353H413.394Z" fill="#5B5B5F"/>
<path d="M436.71 32.7237C436.739 35.1905 438.025 38.1669 441.267 38.1669C443.734 38.1669 445.07 36.7193 445.61 34.6292H447.301C446.577 37.768 444.753 39.5849 441.274 39.5849C436.88 39.5849 435.033 36.2097 435.033 32.2658C435.033 28.6174 436.88 24.9468 441.274 24.9468C445.72 24.9468 447.493 28.8316 447.36 32.7163H436.71V32.7237ZM445.661 31.3057C445.58 28.7577 443.999 26.3722 441.267 26.3722C438.505 26.3722 436.976 28.7872 436.71 31.3057H445.661Z" fill="#5B5B5F"/>
<path d="M319.753 45.5746H317.973V64.2969H319.753V45.5746Z" fill="#5B5B5F"/>
<path d="M323.32 50.7666H324.974V53.1004H325.026C325.632 51.4756 327.441 50.3751 329.354 50.3751C333.158 50.3751 334.31 52.3692 334.31 55.5967V64.3042H332.655V55.8552C332.655 53.5214 331.895 51.7636 329.221 51.7636C326.599 51.7636 325.026 53.7577 324.974 56.4017V64.2968H323.32V50.7666V50.7666Z" fill="#5B5B5F"/>
<path d="M340.056 50.7666H342.81V52.1551H340.056V61.2836C340.056 62.3619 340.211 62.9897 341.392 63.0635C341.865 63.0635 342.338 63.0414 342.81 62.9823V64.4003C342.308 64.4003 341.843 64.452 341.341 64.452C339.14 64.452 338.379 63.7208 338.401 61.4092V52.1551H336.038V50.7666H338.401V46.7046H340.056V50.7666Z" fill="#5B5B5F"/>
<path d="M346.163 57.9748C346.193 60.3899 347.449 63.2998 350.624 63.2998C353.039 63.2998 354.347 61.8818 354.871 59.836H356.525C355.816 62.901 354.036 64.6883 350.624 64.6883C346.326 64.6883 344.516 61.3869 344.516 57.5317C344.516 53.9645 346.326 50.3751 350.624 50.3751C354.974 50.3751 356.71 54.1787 356.577 57.9822H346.163V57.9748ZM354.923 56.5864C354.841 54.0974 353.298 51.7636 350.624 51.7636C347.921 51.7636 346.429 54.127 346.163 56.5864H354.923Z" fill="#5B5B5F"/>
<path d="M358.8 50.7666H360.322V53.9424H360.373C361.215 51.7637 363.047 50.4786 365.484 50.5894V52.2437C362.493 52.0886 360.447 54.2895 360.447 57.096V64.3043H358.793V50.7666H358.8Z" fill="#5B5B5F"/>
<path d="M367.057 50.7666H368.579V53.0487H368.66C369.524 51.4239 370.942 50.3751 373.091 50.3751C374.871 50.3751 376.474 51.2392 376.969 53.0265C377.781 51.2392 379.487 50.3751 381.267 50.3751C384.228 50.3751 385.75 51.9187 385.75 55.124V64.3042H384.103V55.1979C384.103 52.9674 383.261 51.7636 380.905 51.7636C378.047 51.7636 377.234 54.127 377.234 56.6381V64.2968H375.58V55.1166C375.61 53.2776 374.849 51.7562 372.751 51.7562C369.893 51.7562 368.741 53.9054 368.711 56.7414V64.2968H367.057V50.7666V50.7666Z" fill="#5B5B5F"/>
<path d="M389.871 57.9749C389.901 60.39 391.156 63.2999 394.332 63.2999C396.747 63.2999 398.054 61.8818 398.578 59.836H400.233C399.524 62.901 397.744 64.6883 394.332 64.6883C390.033 64.6883 388.224 61.387 388.224 57.5318C388.224 53.9646 390.033 50.3752 394.332 50.3752C398.682 50.3752 400.417 54.1787 400.285 57.9823H389.871V57.9749ZM398.63 56.5864C398.549 54.0975 397.005 51.7637 394.332 51.7637C391.629 51.7637 390.137 54.127 389.871 56.5864H398.63ZM393.911 48.8759H392.574L395.329 45.1758H397.375L393.911 48.8759Z" fill="#5B5B5F"/>
<path d="M414.42 64.2969H412.899V61.7267H412.847C412.138 63.4845 409.989 64.6883 408.025 64.6883C403.904 64.6883 401.939 61.3574 401.939 57.5317C401.939 53.706 403.904 50.3752 408.025 50.3752C410.041 50.3752 412.013 51.3944 412.722 53.3368H412.774V45.5746H414.428V64.2969H414.42ZM408.017 63.2998C411.533 63.2998 412.766 60.3382 412.766 57.5317C412.766 54.7252 411.533 51.7637 408.017 51.7637C404.871 51.7637 403.586 54.7252 403.586 57.5317C403.586 60.3382 404.871 63.2998 408.017 63.2998Z" fill="#5B5B5F"/>
<path d="M417.589 45.5746H419.243V48.226H417.589V45.5746ZM417.589 50.7666H419.243V64.2969H417.589V50.7666Z" fill="#5B5B5F"/>
<path d="M431.961 55.0132C431.518 52.997 430.285 51.7636 428.128 51.7636C424.952 51.7636 423.379 54.6513 423.379 57.5317C423.379 60.4194 424.952 63.2998 428.128 63.2998C430.174 63.2998 431.85 61.6971 432.064 59.4446H433.719C433.276 62.6942 431.149 64.6883 428.135 64.6883C423.992 64.6883 421.74 61.4091 421.74 57.5317C421.74 53.6469 423.992 50.3751 428.135 50.3751C431.023 50.3751 433.254 51.9261 433.615 55.0132H431.961Z" fill="#5B5B5F"/>
<path d="M435.868 54.9098C436.023 51.7341 438.254 50.3751 441.348 50.3751C443.734 50.3751 446.333 51.1063 446.333 54.7252V61.9113C446.333 62.5391 446.643 62.9084 447.301 62.9084C447.485 62.9084 447.692 62.8567 447.825 62.805V64.1934C447.456 64.2747 447.197 64.2968 446.747 64.2968C445.07 64.2968 444.804 63.3515 444.804 61.9335H444.753C443.601 63.6912 442.419 64.6883 439.819 64.6883C437.33 64.6883 435.285 63.4549 435.285 60.7296C435.285 56.9261 438.985 56.7931 442.552 56.3796C443.918 56.2245 444.679 56.0398 444.679 54.5406C444.679 52.3101 443.076 51.7636 441.141 51.7636C439.095 51.7636 437.574 52.7089 437.522 54.9098H435.868ZM444.679 56.9039H444.627C444.413 57.2954 443.682 57.4283 443.239 57.5095C440.432 58.0118 436.946 57.9822 436.946 60.6336C436.946 62.288 438.416 63.3072 439.96 63.3072C442.478 63.3072 444.708 61.7045 444.679 59.0605V56.9039Z" fill="#5B5B5F"/>
<path fill-rule="evenodd" clip-rule="evenodd" d="M281.872 42.7459L302.131 52.3028C303.231 52.8567 303.379 52.8272 304.324 52.1551L308.645 49.0901C309.649 48.3737 309.635 48.13 308.948 47.2068L283.438 12.7903C282.707 11.808 282.522 11.7858 281.503 12.5022L277.353 15.4417C276.407 16.1211 276.326 16.3501 277.05 17.3397L290.61 35.6041L291.333 36.5938C292.397 38.0266 292.936 38.6322 294.177 40.1979L295.573 41.9631C292.589 39.9025 291.134 39.0901 286.525 36.9262L264.31 26.3353C263.113 25.7592 262.921 25.7297 261.976 26.4018L258.438 28.9129C257.434 29.6293 257.404 29.8139 258.128 30.8036L283.638 65.1979C284.376 66.1802 284.568 66.2171 285.573 65.4934L289.664 62.5982C290.669 61.8745 290.661 61.6307 289.967 60.7075L277.353 43.6987L273.778 38.8685L272.338 37.0443C275.809 39.4298 279.11 41.4461 281.872 42.7459ZM284.155 42.9897L306.274 39.0458C307.5 38.8612 307.611 38.7504 307.973 37.6573L309.627 32.6942C310.004 31.5273 309.856 31.3353 308.734 30.9808L267.463 17.8567C266.282 17.4727 266.104 17.5613 265.72 18.7208L264.132 23.4919C263.763 24.5923 263.837 24.8287 265.026 25.2053L286.946 32.1846L288.135 32.5613C289.849 33.1078 290.654 33.2999 292.589 33.839L294.782 34.4668C291.127 34.5111 289.465 34.6957 284.443 35.5968L260.1 39.8139C258.785 40.0428 258.608 40.1315 258.246 41.2245L256.902 45.2866C256.518 46.4609 256.607 46.6233 257.788 47L299.059 60.1315C300.24 60.5081 300.425 60.4269 300.802 59.26L302.367 54.5554C302.751 53.3959 302.596 53.2038 301.481 52.8567L281.075 46.3575L275.277 44.5111L273.017 43.8538C277.264 43.7873 281.141 43.5214 284.155 42.9897ZM286.149 41.8671L301.68 25.9439C302.567 25.0945 302.589 24.9468 302.22 23.8464L300.573 18.8759C300.196 17.7164 299.952 17.6425 298.837 18.0044L257.567 31.1507C256.378 31.5347 256.289 31.6972 256.673 32.8567L258.254 37.6352C258.615 38.7282 258.815 38.8759 259.997 38.5067L281.917 31.5273L283.106 31.1581C284.812 30.6115 285.58 30.3013 287.463 29.6293L289.62 28.8685C286.695 31.0177 285.454 32.1182 281.924 35.7371L264.79 53.1448C263.859 54.0901 263.771 54.26 264.14 55.3604L265.499 59.4225C265.875 60.582 266.045 60.6706 267.227 60.294L308.512 47.1625C309.694 46.7784 309.782 46.6086 309.398 45.449L307.833 40.7371C307.449 39.5776 307.205 39.5185 306.09 39.873L285.683 46.3649L279.893 48.2038L277.67 48.9719C281.06 46.483 284.036 44.0384 286.149 41.8671ZM287.094 39.8139L290.107 17.9823C290.314 16.7858 290.24 16.6529 289.288 15.9808L284.967 12.9158C283.97 12.192 283.734 12.2733 283.039 13.2112L257.53 47.5982C256.799 48.5879 256.828 48.7799 257.833 49.4815L261.976 52.4431C262.936 53.1152 263.18 53.13 263.911 52.1403L277.456 33.8759L278.187 32.8863C279.243 31.4535 279.679 30.7666 280.794 29.127L282.087 27.2733C281.008 30.6928 280.669 32.3028 279.982 37.2585L276.577 61.2245C276.385 62.517 276.422 62.709 277.367 63.3885L280.898 65.8996C281.902 66.616 282.094 66.579 282.833 65.6041L308.335 31.2098C309.066 30.2201 309.036 30.0355 308.032 29.3117L303.94 26.4018C302.936 25.6854 302.7 25.7666 302.013 26.7046L289.413 43.7208L285.831 48.5436L284.509 50.449C285.743 46.4756 286.68 42.7903 287.094 39.8139ZM286.621 37.6056L275.957 18.2112C275.403 17.1256 275.262 17.0591 274.088 17.0591H268.756C267.515 17.0591 267.382 17.2659 267.382 18.418V60.9217C267.382 62.1477 267.515 62.2807 268.756 62.2807H273.881C275.063 62.2807 275.262 62.1477 275.262 60.9217V38.3516V37.1329C275.262 35.3678 275.203 34.5554 275.13 32.5908L275.07 30.3383C276.245 33.7356 276.939 35.2275 279.354 39.6366L290.971 60.9882C291.607 62.1477 291.74 62.2807 292.921 62.2807H297.279C298.527 62.2807 298.66 62.1477 298.66 60.9217V18.418C298.66 17.192 298.527 17.0591 297.279 17.0591H292.227C290.971 17.0591 290.839 17.2659 290.839 18.418V39.4298V45.3973L290.905 47.709C289.531 43.7799 288.076 40.257 286.621 37.6056Z" fill="#F3A100"/>
</g>
<g clip-path="url(#clip1_1459_409)">
<path d="M169.247 20.9844C167.01 20.9844 165.184 22.6744 164.955 24.8187C164.728 27.0098 166.28 28.745 168.424 28.745C170.615 28.745 172.441 27.0114 172.669 24.8187C172.9 22.6744 171.347 20.9844 169.247 20.9844ZM82.3376 30.7073C79.5069 30.7073 77.3174 31.4822 75.5372 33.2173L76.5409 26.5523C76.9066 24.3161 75.766 22.8548 73.757 22.8548C72.5696 22.8548 71.292 22.9918 70.2416 23.1738L65.4486 55.0346C66.2703 55.2183 67.4576 55.3536 68.7352 55.3536C70.1514 55.3536 71.4273 55.2166 72.2506 55.0346L74.4417 40.3367C74.8525 37.6881 76.5409 36.0013 78.595 36.0013C80.604 36.0013 81.4257 37.2337 81.1051 39.2879L78.732 55.0346C79.5536 55.2183 80.7861 55.3536 82.0637 55.3536C83.5249 55.3536 84.8476 55.2166 85.534 55.0346L88.0891 38.1005C88.7738 33.5379 86.4458 30.7073 82.3376 30.7073ZM189.65 26.4169L188.555 33.6749C187.596 31.9865 185.452 30.7073 182.711 30.7073C176.322 30.7073 173.857 35.6823 172.806 42.6663C172.577 44.0808 172.441 45.6339 172.441 47.1403C172.441 52.4343 174.723 55.7676 179.698 55.7676C182.118 55.7676 184.583 54.5803 185.859 52.9386C186.225 54.4449 187.594 55.3568 189.056 55.3568C190.198 55.3568 191.292 55.265 192.16 55.0378L196.953 23.1771C195.995 22.995 194.809 22.8581 193.712 22.8581C191.065 22.8565 190.061 23.7699 189.65 26.4169ZM110.18 31.1181C108.126 31.1181 106.757 32.1218 106.072 33.7667C105.068 32.0316 102.831 30.7073 100.412 30.7073C94.0228 30.7073 91.5578 35.6823 90.5074 42.6663C90.2802 44.0808 90.1433 45.6339 90.1433 47.1403C90.1433 52.4343 92.4262 55.7676 97.4012 55.7676C99.821 55.7676 102.286 54.5803 103.564 52.9386C103.929 54.4449 105.297 55.3568 106.758 55.3568C107.899 55.3568 108.995 55.265 109.863 55.0378L113.423 31.4387C112.463 31.255 111.277 31.1181 110.18 31.1181ZM129.718 30.7073C127.3 30.7073 124.835 31.8946 123.555 33.5379C123.191 32.0316 121.822 31.1181 120.361 31.1181C119.218 31.1181 118.125 31.2099 117.256 31.4371L112.463 63.2978C113.422 63.4799 114.609 63.6168 115.705 63.6168C118.352 63.6168 119.355 62.7033 119.766 60.0563L120.862 52.7984C121.82 54.4884 123.966 55.766 126.705 55.766C133.096 55.766 135.56 50.791 136.61 43.807C136.839 42.3908 136.976 40.8393 136.976 39.333C136.976 34.039 134.693 30.7073 129.718 30.7073ZM217.037 31.1181C214.983 31.1181 213.613 32.1218 212.929 33.7667C211.925 32.0316 209.687 30.7073 207.269 30.7073C200.878 30.7073 198.414 35.6823 197.364 42.6663C197.137 44.0808 197 45.6339 197 47.1403C197 52.4343 199.283 55.7676 204.258 55.7676C206.676 55.7676 209.141 54.5803 210.42 52.9386C210.786 54.4449 212.154 55.3568 213.615 55.3568C214.756 55.3568 215.851 55.265 216.718 55.0378L220.278 31.4387C219.32 31.255 218.132 31.1181 217.037 31.1181ZM159.159 31.1181C157.195 31.1181 155.735 31.392 155.37 31.4838L151.901 39.3346C150.486 42.5745 149.254 44.3547 148.113 49.0108H148.021C147.93 45.5872 147.382 41.5257 146.789 37.6462L146.286 34.3596C145.967 32.1685 144.735 31.1181 142.544 31.1181C141.084 31.1181 139.713 31.3017 138.846 31.4371L142.772 54.9911C143.823 55.2183 145.374 55.4019 147.109 55.4019C149.027 55.4019 150.715 55.2183 151.582 54.9911L162.4 31.4371C162.035 31.3469 160.849 31.1181 159.159 31.1181ZM164.408 31.4371L160.847 55.0362C161.166 55.128 162.262 55.3552 164.179 55.3552C166.096 55.3552 167.374 55.0813 167.739 55.0362L171.3 31.4371C170.889 31.3452 169.748 31.1181 167.921 31.1181C165.869 31.1181 164.728 31.392 164.408 31.4371ZM129.808 43.1222C128.85 49.3314 127.161 50.5638 124.696 50.5638C122.505 50.5638 121.501 48.6466 121.82 46.5007L122.779 39.9275C123.143 37.5076 124.833 35.8643 126.887 35.8643C129.26 35.8643 130.082 37.187 130.082 39.7438C130.084 40.6589 129.992 41.7996 129.808 43.1222ZM105.297 39.9726L104.339 46.5458C103.974 48.964 102.284 50.6089 100.23 50.6089C97.8555 50.6089 97.0339 49.2846 97.0339 46.7295C97.0339 45.816 97.1257 44.6753 97.3077 43.351C98.2663 37.1435 99.9548 35.911 102.42 35.911C104.612 35.911 105.616 37.8282 105.297 39.9726ZM187.596 39.9726L186.637 46.5458C186.272 48.964 184.583 50.6089 182.529 50.6089C180.156 50.6089 179.334 49.2846 179.334 46.7295C179.334 45.816 179.426 44.6753 179.608 43.351C180.567 37.1435 182.255 35.911 184.72 35.911C186.911 35.911 187.917 37.8282 187.596 39.9726ZM212.154 39.9726L211.195 46.5458C210.829 48.964 209.141 50.6089 207.087 50.6089C204.712 50.6089 203.892 49.2846 203.892 46.7295C203.892 45.816 203.984 44.6753 204.166 43.351C205.125 37.1435 206.813 35.911 209.278 35.911C211.469 35.911 212.473 37.8282 212.154 39.9726Z" fill="#0054B8"/>
<path d="M34.0341 47.6703C32.2603 47.6703 30.683 51.6513 30.1659 52.9595C29.1251 55.5888 28.2213 59.2073 29.8227 61.5192C30.4397 62.4101 31.5482 63.5926 34.0324 63.5926C36.5184 63.5926 37.6268 62.4085 38.2438 61.5192C39.8436 59.2073 38.9414 55.5888 37.9007 52.9595C37.3835 51.6513 35.8079 47.6703 34.0341 47.6703Z" fill="#FCB812"/>
<path d="M34.0341 15.526C30.3947 15.526 28.7707 17.2595 27.8685 18.5645C26.5748 20.4301 25.6114 24.1131 28.3615 31.0649C29.1187 32.9772 31.4193 38.7932 34.0341 38.7932C36.6505 38.7932 38.9511 32.9772 39.7067 31.0649C42.4568 24.1147 41.4934 20.4317 40.2013 18.5645C39.2975 17.2595 37.6752 15.526 34.0341 15.526Z" fill="#F0402E"/>
<path d="M24.9298 45.1538L24.8702 45.1587C22.3521 45.3278 19.0896 45.9868 17.8411 48.1633C17.361 48.9995 16.8325 50.3431 17.7863 52.3457C18.7384 54.3467 20.1143 54.7849 21.0681 54.9412C23.5346 55.3375 26.1124 53.2286 27.8314 51.3807C28.6981 50.4511 31.3339 47.6204 30.6508 46.1849C29.9967 44.8107 26.4442 45.0507 24.9298 45.1538Z" fill="#F5821F"/>
<path d="M43.198 45.157L43.1384 45.1521C42.6341 45.1183 41.9059 45.0684 41.1326 45.0684C39.5811 45.0684 37.854 45.2665 37.419 46.1832C36.7359 47.6171 39.3717 50.4494 40.2384 51.379C41.9574 53.2269 44.5271 55.3358 47.0017 54.9378C47.9539 54.7816 49.3314 54.3434 50.2819 52.3424C51.2357 50.3414 50.7072 48.9978 50.2271 48.16C48.9785 45.9867 45.7161 45.3277 43.198 45.157Z" fill="#F5821F"/>
<path d="M16.5893 28.5194C16.193 28.5194 15.8321 28.5581 15.5083 28.6193C14.0905 28.89 12.0493 29.6004 10.7089 32.6293C9.36684 35.6581 10.211 37.6462 10.9634 38.8787C12.0412 40.6428 14.7511 42.8033 21.5531 43.0739C23.4235 43.1513 29.1123 43.3816 30.0757 41.2051C31.0391 39.0317 27.0452 34.9702 25.7322 33.6378C21.7222 29.565 18.6676 28.5194 16.5893 28.5194Z" fill="#F05921"/>
<path d="M52.56 28.6193C52.2345 28.5565 51.8736 28.5194 51.4789 28.5194C49.399 28.5194 46.3444 29.565 42.336 33.641C41.0246 34.975 37.0291 39.0349 37.9926 41.2083C38.956 43.3816 44.6479 43.1529 46.5152 43.0771C53.3156 42.8065 56.027 40.646 57.1048 38.8803C57.8572 37.6478 58.7014 35.6597 57.3594 32.6309C56.0173 29.6004 53.9777 28.89 52.56 28.6193Z" fill="#F05921"/>
</g>
<line x1="239.189" y1="9.5144" x2="239.189" y2="68.127" stroke="#C4C4C4" stroke-width="1.5"/>
<defs>
<clipPath id="clip0_1459_409">
<rect width="206.211" height="75" fill="white" transform="translate(256.474 2)"/>
</clipPath>
<clipPath id="clip1_1459_409">
<rect width="210.278" height="48.0924" fill="white" transform="translate(10 15.526)"/>
</clipPath>
</defs>
</svg>
