<svg width="86" height="86" viewBox="0 0 86 86" fill="none" xmlns="http://www.w3.org/2000/svg">
<path d="M43 17.9167C39.6737 17.9167 36.4837 19.238 34.1317 21.5901C31.7797 23.9421 30.4583 27.1321 30.4583 30.4584C30.4583 33.7846 31.7797 36.9746 34.1317 39.3267C36.4837 41.6787 39.6737 43 43 43C46.3263 43 49.5163 41.6787 51.8683 39.3267C54.2203 36.9746 55.5417 33.7846 55.5417 30.4584C55.5417 27.1321 54.2203 23.9421 51.8683 21.5901C49.5163 19.238 46.3263 17.9167 43 17.9167ZM43 25.0834C44.4255 25.0834 45.7927 25.6496 46.8007 26.6577C47.8087 27.6657 48.375 29.0328 48.375 30.4584C48.375 31.8839 47.8087 33.251 46.8007 34.2591C45.7927 35.2671 44.4255 35.8334 43 35.8334C41.5745 35.8334 40.2073 35.2671 39.1993 34.2591C38.1913 33.251 37.625 31.8839 37.625 30.4584C37.625 29.0328 38.1913 27.6657 39.1993 26.6577C40.2073 25.6496 41.5745 25.0834 43 25.0834ZM19.7083 28.6667C17.3324 28.6667 15.0538 29.6105 13.3738 31.2905C11.6938 32.9705 10.75 35.2491 10.75 37.625C10.75 40.9934 12.6492 43.8959 15.3725 45.4367C16.6625 46.1534 18.1317 46.5834 19.7083 46.5834C21.285 46.5834 22.7542 46.1534 24.0442 45.4367C25.37 44.6842 26.4808 43.6092 27.305 42.3192C24.6892 38.915 23.2917 34.7584 23.2917 30.4584C23.2917 30.1359 23.2917 29.7775 23.2917 29.455C22.2167 28.9534 20.9983 28.6667 19.7083 28.6667ZM66.2917 28.6667C65.0017 28.6667 63.7833 28.9534 62.7083 29.455C62.7083 29.7775 62.7083 30.1359 62.7083 30.4584C62.7083 34.7584 61.3108 38.915 58.695 42.3192C59.125 43 59.5908 43.5375 60.1283 44.075C60.7017 44.6125 61.275 45.0784 61.9558 45.4367C63.2458 46.1534 64.715 46.5834 66.2917 46.5834C67.8683 46.5834 69.3375 46.1534 70.6275 45.4367C73.3508 43.8959 75.25 40.9934 75.25 37.625C75.25 35.2491 74.3062 32.9705 72.6262 31.2905C70.9462 29.6105 68.6676 28.6667 66.2917 28.6667ZM43 50.1667C34.615 50.1667 17.9167 54.3592 17.9167 62.7084V68.0834H68.0833V62.7084C68.0833 54.3592 51.385 50.1667 43 50.1667ZM16.8775 52.1375C9.96167 52.9617 0 56.4734 0 62.7084V68.0834H10.75V61.1675C10.75 57.5484 13.2225 54.5384 16.8775 52.1375ZM69.1225 52.1375C72.7775 54.5384 75.25 57.5484 75.25 61.1675V68.0834H86V62.7084C86 56.4734 76.0383 52.9617 69.1225 52.1375ZM43 57.3334C48.4825 57.3334 54.61 59.125 58.1575 60.9167H27.8425C31.39 59.125 37.5175 57.3334 43 57.3334Z" fill="#0054B8"/>
</svg>
