<svg width="86" height="86" viewBox="0 0 86 86" fill="none" xmlns="http://www.w3.org/2000/svg">
<path d="M71.6665 25.0833H57.3332V17.9167L50.1665 10.75H35.8332L28.6665 17.9167V25.0833H14.3332C10.3915 25.0833 7.1665 28.3083 7.1665 32.25V50.1667C7.1665 52.8542 8.59984 55.1117 10.7498 56.3658V68.0833C10.7498 72.0608 13.939 75.25 17.9165 75.25H68.0832C72.0607 75.25 75.2498 72.0608 75.2498 68.0833V56.33C77.364 55.0758 78.8332 52.7825 78.8332 50.1667V32.25C78.8332 28.3083 75.6082 25.0833 71.6665 25.0833ZM35.8332 17.9167H50.1665V25.0833H35.8332V17.9167ZM14.3332 32.25H71.6665V50.1667H53.7498V39.4167H32.2498V50.1667H14.3332V32.25ZM46.5832 53.75H39.4165V46.5833H46.5832V53.75ZM68.0832 68.0833H17.9165V57.3333H32.2498V60.9167H53.7498V57.3333H68.0832V68.0833Z" fill="#0054B8"/>
</svg>
