<svg width="51" height="51" viewBox="0 0 51 51" fill="none" xmlns="http://www.w3.org/2000/svg">
<path d="M39.3125 30.2812H35.0625V34.5312H39.3125M39.3125 21.7812H35.0625V26.0312H39.3125M43.5625 38.7812H26.5625V34.5312H30.8125V30.2812H26.5625V26.0312H30.8125V21.7812H26.5625V17.5312H43.5625M22.3125 13.2812H18.0625V9.03125H22.3125M22.3125 21.7812H18.0625V17.5312H22.3125M22.3125 30.2812H18.0625V26.0312H22.3125M22.3125 38.7812H18.0625V34.5312H22.3125M13.8125 13.2812H9.5625V9.03125H13.8125M13.8125 21.7812H9.5625V17.5312H13.8125M13.8125 30.2812H9.5625V26.0312H13.8125M13.8125 38.7812H9.5625V34.5312H13.8125M26.5625 13.2812V4.78125H5.3125V43.0312H47.8125V13.2812H26.5625Z" fill="#F39A00"/>
</svg>
