<svg width="86" height="86" viewBox="0 0 86 86" fill="none" xmlns="http://www.w3.org/2000/svg">
<path d="M45.6875 14.1183C49.2709 11.5383 53.4275 10.2483 58.1217 10.2483C60.7017 10.2483 63.5325 10.9292 66.6142 12.3625C69.6959 13.76 72.1325 15.4083 73.9242 17.3075C77.615 21.8942 79.1559 27.2333 78.6184 33.325C78.045 39.4167 76.0384 44.1825 72.5625 47.5508L45.365 74.7483C44.6842 75.4292 43.8242 75.7517 42.8209 75.7517C41.8175 75.7517 40.9934 75.4292 40.3125 74.7483C39.6317 74.0675 39.3092 73.2433 39.3092 72.24C39.3092 71.2367 39.6317 70.3767 40.3125 69.6958L56.76 53.2483C57.6559 52.46 57.6559 51.6358 56.76 50.74C55.8642 49.8442 55.04 49.8442 54.2517 50.74L37.8042 67.1875C37.1234 67.8683 36.2992 68.1908 35.26 68.1908C34.2567 68.1908 33.4325 67.8683 32.7517 67.1875C32.0709 66.5067 31.7484 65.6825 31.7484 64.6792C31.7484 63.6758 32.0709 62.8158 32.7517 62.135L49.1992 45.6875C50.1667 44.7917 50.1667 43.8958 49.1992 43C48.375 42.1042 47.5867 42.1042 46.6909 43L30.2434 59.6267C29.5625 60.3075 28.6667 60.63 27.6992 60.63C26.6959 60.63 25.8359 60.3075 25.0834 59.6267C24.3667 58.9458 24.0084 58.1217 24.0084 57.1183C24.0084 56.115 24.4025 55.2192 25.1909 54.4308L41.6742 37.9475C42.57 37.0517 42.57 36.2275 41.6742 35.4392C40.7784 34.6508 39.9184 34.6508 39.13 35.4392L22.5034 51.9583C21.715 52.675 20.8909 53.0692 19.995 53.0692C18.9917 53.0692 18.1317 52.7108 17.4867 51.9583C16.8059 51.2417 16.4475 50.3817 16.4475 49.3783C16.4475 48.375 16.8059 47.5508 17.4867 46.87C28.4517 35.8333 35.2242 29.1683 37.8042 26.6958L50.5609 39.3092C51.9584 40.635 53.5709 41.3158 55.5417 41.3158C58.05 41.3158 60.0209 40.3125 61.49 38.3058C62.4934 36.8367 62.8517 35.2242 62.565 33.4325C62.2784 31.6408 61.5259 30.1358 60.3075 28.8817L45.6875 14.1183ZM53.0692 36.8008L37.8042 21.5L12.4342 46.87C9.4242 43.8242 7.7042 39.1658 7.31003 32.8233C6.91586 26.5167 8.63586 21.0342 12.4342 16.4475C16.6984 12.2192 21.7867 10.0692 27.6992 10.0692C33.6475 10.0692 38.7 12.2192 42.8209 16.4475L58.1217 31.7483C58.8025 32.4292 59.125 33.2533 59.125 34.2567C59.125 35.26 58.8025 36.12 58.1217 36.8008C57.4409 37.4458 56.6167 37.8042 55.5417 37.8042C54.5742 37.8042 53.75 37.4458 53.0692 36.8008Z" fill="#0054B8"/>
</svg>
