<svg width="86" height="86" viewBox="0 0 86 86" fill="none" xmlns="http://www.w3.org/2000/svg">
<path d="M17.9167 68.0834C17.9167 69.0337 18.2942 69.9451 18.9662 70.6172C19.6382 71.2892 20.5496 71.6667 21.5 71.6667H64.5C65.4504 71.6667 66.3618 71.2892 67.0338 70.6172C67.7058 69.9451 68.0833 69.0337 68.0833 68.0834C68.0833 67.3309 67.8325 66.6142 67.4383 66.0409L46.5833 29.9209V14.3334H39.4167V29.9209L18.5617 66.0409C18.1675 66.6142 17.9167 67.3309 17.9167 68.0834ZM21.5 78.8334C18.6489 78.8334 15.9146 77.7008 13.8986 75.6848C11.8826 73.6687 10.75 70.9344 10.75 68.0834C10.75 65.9334 11.395 63.9267 12.5417 62.2425L32.25 27.9859V21.5C31.2996 21.5 30.3882 21.1225 29.7162 20.4505C29.0442 19.7785 28.6667 18.867 28.6667 17.9167V14.3334C28.6667 12.4326 29.4217 10.6098 30.7657 9.26575C32.1097 7.92174 33.9326 7.16669 35.8333 7.16669H50.1667C52.0674 7.16669 53.8903 7.92174 55.2343 9.26575C56.5783 10.6098 57.3333 12.4326 57.3333 14.3334V17.9167C57.3333 18.867 56.9558 19.7785 56.2838 20.4505C55.6118 21.1225 54.7004 21.5 53.75 21.5V27.9859L73.4583 62.2425C74.605 63.9267 75.25 65.9334 75.25 68.0834C75.25 70.9344 74.1174 73.6687 72.1014 75.6848C70.0854 77.7008 67.3511 78.8334 64.5 78.8334H21.5ZM46.5833 57.3334L51.385 52.5317L58.3008 64.5H27.6992L37.2308 47.9809L46.5833 57.3334ZM44.7917 43C45.2668 43 45.7226 43.1888 46.0586 43.5248C46.3946 43.8608 46.5833 44.3165 46.5833 44.7917C46.5833 45.2669 46.3946 45.7226 46.0586 46.0586C45.7226 46.3946 45.2668 46.5834 44.7917 46.5834C44.3165 46.5834 43.8608 46.3946 43.5248 46.0586C43.1888 45.7226 43 45.2669 43 44.7917C43 44.3165 43.1888 43.8608 43.5248 43.5248C43.8608 43.1888 44.3165 43 44.7917 43Z" fill="#0054B8"/>
</svg>
