<svg width="86" height="86" viewBox="0 0 86 86" fill="none" xmlns="http://www.w3.org/2000/svg">
<path d="M14.3333 28.6667H28.6666V14.3334C28.6666 12.4326 29.4217 10.6098 30.7657 9.26575C32.1097 7.92174 33.9326 7.16669 35.8333 7.16669H50.1666C52.0673 7.16669 53.8902 7.92174 55.2342 9.26575C56.5782 10.6098 57.3333 12.4326 57.3333 14.3334V28.6667H71.6666C73.5673 28.6667 75.3902 29.4217 76.7342 30.7658C78.0782 32.1098 78.8333 33.9326 78.8333 35.8334V50.1667C78.8333 52.0674 78.0782 53.8903 76.7342 55.2343C75.3902 56.5783 73.5673 57.3334 71.6666 57.3334H57.3333V71.6667C57.3333 73.5674 56.5782 75.3903 55.2342 76.7343C53.8902 78.0783 52.0673 78.8334 50.1666 78.8334H35.8333C33.9326 78.8334 32.1097 78.0783 30.7657 76.7343C29.4217 75.3903 28.6666 73.5674 28.6666 71.6667V57.3334H14.3333C12.4326 57.3334 10.6097 56.5783 9.26569 55.2343C7.92168 53.8903 7.16663 52.0674 7.16663 50.1667V35.8334C7.16663 33.9326 7.92168 32.1098 9.26569 30.7658C10.6097 29.4217 12.4326 28.6667 14.3333 28.6667M14.3333 35.8334V50.1667H35.8333V71.6667H50.1666V50.1667H71.6666V35.8334H50.1666V14.3334H35.8333V35.8334H14.3333Z" fill="#0054B8"/>
</svg>
