<svg width="47" height="35" viewBox="0 0 47 35" fill="none" xmlns="http://www.w3.org/2000/svg">
<path d="M8.625 23.875L7.35 22.8125C3.1 18.775 0.125 16.225 0.125 13.0375C0.125 10.4875 2.25 8.3625 4.8 8.3625C6.2875 8.3625 7.775 9 8.625 10.0625C9.475 9 10.9625 8.3625 12.45 8.3625C15 8.3625 17.125 10.275 17.125 13.0375C17.125 16.225 14.15 18.775 9.9 22.8125L8.625 23.875ZM29.875 0.5C27.6207 0.5 25.4587 1.39553 23.8646 2.98959C22.2705 4.58365 21.375 6.74566 21.375 9C21.375 11.2543 22.2705 13.4163 23.8646 15.0104C25.4587 16.6045 27.6207 17.5 29.875 17.5C32.1293 17.5 34.2913 16.6045 35.8854 15.0104C37.4795 13.4163 38.375 11.2543 38.375 9C38.375 6.74566 37.4795 4.58365 35.8854 2.98959C34.2913 1.39553 32.1293 0.5 29.875 0.5ZM29.875 13.4625C28.6915 13.4625 27.5564 12.9923 26.7195 12.1555C25.8827 11.3186 25.4125 10.1835 25.4125 9C25.4125 7.81647 25.8827 6.68142 26.7195 5.84454C27.5564 5.00765 28.6915 4.5375 29.875 4.5375C32.34 4.5375 34.3375 6.535 34.3375 9C34.3375 11.465 32.34 13.4625 29.875 13.4625ZM29.875 19.625C24.2013 19.625 12.875 22.4513 12.875 28.125V34.5H46.875V28.125C46.875 22.4513 35.5488 19.625 29.875 19.625ZM42.8375 30.4625H16.9125V28.125C16.9125 26.765 23.5 23.6625 29.875 23.6625C36.1862 23.6625 42.8375 26.765 42.8375 28.125V30.4625Z" fill="#F39A00"/>
</svg>
