<svg width="86" height="86" viewBox="0 0 86 86" fill="none" xmlns="http://www.w3.org/2000/svg">
<path d="M7.16659 21.5H3.58325L17.9166 7.16669L32.2499 21.5H28.6666V32.25H21.4999V21.5H14.3333V32.25H7.16659V21.5ZM46.5833 39.0584L51.2416 43H57.3333V32.25H64.4999V43H75.2499V28.6667H78.8333L60.9166 10.75L42.9999 28.6667H46.5833V39.0584ZM49.4499 78.8334C47.6583 75.6084 46.5833 72.025 46.5833 68.0834C46.5833 62.35 48.7333 56.975 52.6749 53.3917L32.2499 35.8334L7.16659 57.3334H14.3333V78.8334H25.0833V60.9167H39.4166V78.8334H49.4499ZM64.4999 53.75V64.5H53.7499V71.6667H64.4999V82.4167H71.6666V71.6667H82.4166V64.5H71.6666V53.75H64.4999Z" fill="#0054B8"/>
</svg>
