<svg width="86" height="86" viewBox="0 0 86 86" fill="none" xmlns="http://www.w3.org/2000/svg">
<path d="M7.16687 78.8334V25.0834C7.16687 24.133 7.5444 23.2216 8.2164 22.5496C8.88841 21.8775 9.79984 21.5 10.7502 21.5H25.0835V7.16669H60.9169V21.5H75.2502C76.2006 21.5 77.112 21.8775 77.784 22.5496C78.456 23.2216 78.8335 24.133 78.8335 25.0834V78.8334H50.1669V60.9167H35.8335V78.8334H7.16687ZM32.2502 14.3334V35.8334H39.4169V28.6667H46.5835V35.8334H53.7502V14.3334H46.5835V21.5H39.4169V14.3334H32.2502ZM14.3335 71.6667H28.6669V60.9167H14.3335V71.6667ZM14.3335 53.75H28.6669V43H14.3335V53.75ZM57.3335 71.6667H71.6669V60.9167H57.3335V71.6667ZM57.3335 53.75H71.6669V43H57.3335V53.75ZM35.8335 53.75H50.1669V43H35.8335V53.75Z" fill="#0054B8"/>
</svg>
