<svg width="86" height="86" viewBox="0 0 86 86" fill="none" xmlns="http://www.w3.org/2000/svg">
<path d="M43.0003 23.2916C45.3762 23.2916 47.6548 24.2354 49.3348 25.9155C51.0148 27.5955 51.9587 29.8741 51.9587 32.25C51.9587 33.4264 51.7269 34.5913 51.2767 35.6782C50.8265 36.765 50.1667 37.7526 49.3348 38.5845C48.503 39.4163 47.5154 40.0762 46.4285 40.5264C45.3417 40.9766 44.1768 41.2083 43.0003 41.2083C40.6244 41.2083 38.3458 40.2645 36.6658 38.5845C34.9858 36.9044 34.042 34.6259 34.042 32.25C34.042 29.8741 34.9858 27.5955 36.6658 25.9155C38.3458 24.2354 40.6244 23.2916 43.0003 23.2916ZM43.0003 7.16663C49.6528 7.16663 56.0329 9.80933 60.7369 14.5134C65.441 19.2174 68.0837 25.5974 68.0837 32.25C68.0837 51.0625 43.0003 78.8333 43.0003 78.8333C43.0003 78.8333 17.917 51.0625 17.917 32.25C17.917 25.5974 20.5597 19.2174 25.2637 14.5134C29.9678 9.80933 36.3478 7.16663 43.0003 7.16663ZM43.0003 14.3333C38.2485 14.3333 33.6914 16.2209 30.3313 19.581C26.9713 22.941 25.0837 27.4982 25.0837 32.25C25.0837 35.8333 25.0837 43 43.0003 67.0441C60.917 43 60.917 35.8333 60.917 32.25C60.917 27.4982 59.0294 22.941 55.6693 19.581C52.3093 16.2209 47.7521 14.3333 43.0003 14.3333Z" fill="#0054B8"/>
</svg>
