<svg width="86" height="86" viewBox="0 0 86 86" fill="none" xmlns="http://www.w3.org/2000/svg">
<path d="M25.0833 7.16669C14.3333 7.16669 7.16663 17.9167 7.16663 28.6667C7.16663 36.2275 10.75 46.5834 14.3333 50.1667C17.9166 53.75 21.5 78.8334 28.6666 78.8334C44.935 78.8334 35.8333 53.75 43 53.75C50.1666 53.75 41.065 78.8334 57.3333 78.8334C64.5 78.8334 68.0833 53.75 71.6666 50.1667C75.25 46.5834 78.8333 36.2275 78.8333 28.6667C78.8333 17.9167 71.6666 7.16669 60.9166 7.16669C50.1666 7.16669 50.1666 10.75 43 10.75C35.8333 10.75 35.8333 7.16669 25.0833 7.16669ZM25.0833 14.3334C32.25 14.3334 35.8333 17.9167 43 17.9167C50.1666 17.9167 53.75 14.3334 60.9166 14.3334C66.9008 14.3334 71.6666 21.5 71.6666 28.6667C71.6666 34.9375 68.585 43.3942 65.1808 46.7984C62.0991 49.88 57.5483 71.4517 55.5416 71.4517C54.7891 71.4517 53.75 67.6534 53.75 63.0309C53.75 55.7209 51.7075 46.5834 43 46.5834C34.2925 46.5834 32.25 55.7209 32.25 63.0309C32.25 67.6534 31.2108 71.4517 30.4583 71.4517C28.4516 71.4517 23.9008 49.88 20.8191 46.7984C17.415 43.3942 14.3333 34.9375 14.3333 28.6667C14.3333 21.5 19.0991 14.3334 25.0833 14.3334Z" fill="#0054B8"/>
</svg>
